<svg xmlns="http://www.w3.org/2000/svg" viewBox="0 0 1024 1024">
  <defs>
    <linearGradient id="base" x1="126" y1="98" x2="898" y2="926" gradientUnits="userSpaceOnUse">
      <stop offset="0" stop-color="#162027"/>
      <stop offset="0.46" stop-color="#14383d"/>
      <stop offset="1" stop-color="#080b12"/>
    </linearGradient>
    <linearGradient id="glass" x1="284" y1="228" x2="754" y2="782" gradientUnits="userSpaceOnUse">
      <stop offset="0" stop-color="#ffffff" stop-opacity="0.34"/>
      <stop offset="0.50" stop-color="#ffffff" stop-opacity="0.12"/>
      <stop offset="1" stop-color="#ffffff" stop-opacity="0.05"/>
    </linearGradient>
    <linearGradient id="stroke" x1="291" y1="228" x2="731" y2="790" gradientUnits="userSpaceOnUse">
      <stop offset="0" stop-color="#ecfdff"/>
      <stop offset="0.48" stop-color="#95f1ff"/>
      <stop offset="1" stop-color="#9dffba"/>
    </linearGradient>
    <radialGradient id="glowA" cx="0" cy="0" r="1" gradientUnits="userSpaceOnUse" gradientTransform="translate(294 257) rotate(39) scale(392 211)">
      <stop offset="0" stop-color="#b9fbff" stop-opacity="0.45"/>
      <stop offset="1" stop-color="#b9fbff" stop-opacity="0"/>
    </radialGradient>
    <radialGradient id="glowB" cx="0" cy="0" r="1" gradientUnits="userSpaceOnUse" gradientTransform="translate(705 748) rotate(-29) scale(320 218)">
      <stop offset="0" stop-color="#6fffa0" stop-opacity="0.34"/>
      <stop offset="1" stop-color="#6fffa0" stop-opacity="0"/>
    </radialGradient>
    <filter id="shadow" x="-20%" y="-20%" width="140%" height="140%">
      <feDropShadow dx="0" dy="26" stdDeviation="28" flood-color="#000000" flood-opacity="0.34"/>
    </filter>
  </defs>

  <rect width="1024" height="1024" fill="none"/>
  <g filter="url(#shadow)">
    <rect x="58" y="58" width="908" height="908" rx="214" fill="url(#base)"/>
    <rect x="58" y="58" width="908" height="908" rx="214" fill="url(#glowA)"/>
    <rect x="58" y="58" width="908" height="908" rx="214" fill="url(#glowB)"/>
    <rect x="70" y="70" width="884" height="884" rx="202" fill="none" stroke="#ffffff" stroke-opacity="0.18" stroke-width="12"/>
  </g>

  <rect x="216" y="216" width="592" height="592" rx="122" fill="url(#glass)" stroke="#ffffff" stroke-opacity="0.30" stroke-width="10"/>
  <path d="M325 514a187 187 0 1 0 374 0" fill="none" stroke="url(#stroke)" stroke-width="54" stroke-linecap="round"/>
  <path d="M512 286v172" fill="none" stroke="#effdff" stroke-width="54" stroke-linecap="round"/>
  <path d="M346 690h332" fill="none" stroke="#96f0ff" stroke-opacity="0.80" stroke-width="36" stroke-linecap="round"/>
  <path d="M698 626a78 78 0 1 0 76 104a72 72 0 0 1-76-104z" fill="#b8ffc6"/>
</svg>
